HIERARCHY
ROOT Hips
{
	OFFSET 0.000000 0.000000 0.000000
	CHANNELS 6 Xposition Yposition Zposition Zrotation Yrotation Xrotation 
	JOINT LHipJoint
	{
		OFFSET 0.000000 0.000000 0.000000
		CHANNELS 3 Zrotation Yrotation Xrotation
		JOINT LeftUpLeg
		{
			OFFSET 1.363060 -1.794630 0.839290
			CHANNELS 3 Zrotation Yrotation Xrotation
			JOINT LeftLeg
			{
				OFFSET 2.448110 -6.726130 0.000000
				CHANNELS 3 Zrotation Yrotation Xrotation
				JOINT LeftFoot
				{
					OFFSET 2.562200 -7.039590 0.000000
					CHANNELS 3 Zrotation Yrotation Xrotation
					JOINT LeftToeBase
					{
						OFFSET 0.157640 -0.433110 2.322550
						CHANNELS 3 Zrotation Yrotation Xrotation
						End Site
						{
							OFFSET 0.000000 0.000000 0.000000
						}
					}
				}
			}
		}
	}
	JOINT RHipJoint
	{
		OFFSET 0.000000 0.000000 0.000000
		CHANNELS 3 Zrotation Yrotation Xrotation
		JOINT RightUpLeg
		{
			OFFSET -1.305520 -1.794630 0.839290
			CHANNELS 3 Zrotation Yrotation Xrotation
			JOINT RightLeg
			{
				OFFSET -2.542530 -6.985550 0.000000
				CHANNELS 3 Zrotation Yrotation Xrotation
				JOINT RightFoot
				{
					OFFSET -2.568260 -7.056230 0.000000
					CHANNELS 3 Zrotation Yrotation Xrotation
					JOINT RightToeBase
					{
						OFFSET -0.164730 -0.452590 2.363150
						CHANNELS 3 Zrotation Yrotation Xrotation
						End Site
						{
							OFFSET 0.000000 0.000000 0.000000
						}
					}
				}
			}
		}
	}
}
MOTION
Frames: 14
Frame Time: 0.008333
-12.515079 17.035131 -1.283934 38.400475 87.852119 62.125307 -11.337027 2.112379 -2.678363 -7.640662 3.272948 -9.242349 -1.549116 1.427904 26.153145 0.201532 -0.789239 3.416113 -0.082600 -0.000000 -74.559800 8.005928 0.486738 1.578348 6.022872 8.691179 -41.053863 2.197253 -0.145812 12.300954 -0.589720 -3.497523 5.319154 -1.629200 -0.000000 -22.917700
-12.357943 17.045304 -1.271463 30.250798 88.149725 54.097587 -11.501291 2.113451 -2.653848 -6.957609 3.412107 -9.565763 -1.425301 1.519041 27.051101 0.228954 -0.852010 4.428376 -0.128601 0.000000 -75.480499 7.866727 0.416046 1.566312 6.534061 9.117804 -41.081111 2.207646 -0.224597 13.613953 -0.692842 -3.816880 4.163409 -1.626700 -0.000000 -21.821900
-12.203324 17.057855 -1.255916 16.139834 88.497952 40.094919 -11.542698 2.107840 -2.657900 -6.258674 3.600694 -9.958386 -1.296661 1.607168 28.077977 0.259969 -0.929298 5.513462 -0.184400 0.000000 -75.926901 7.842384 0.370068 1.559188 7.099747 9.476084 -40.990931 2.229513 -0.295045 14.704667 -0.801716 -4.117402 2.975505 -1.597500 -0.000000 -21.098800
-12.051390 17.071988 -1.236396 -7.641992 89.165853 16.392740 -11.456698 1.981596 -2.701237 -5.533638 3.754124 -10.385510 -1.091887 1.628296 29.276457 0.285182 -1.024493 6.673429 -0.245300 -0.000000 -75.802400 7.900126 0.231382 1.597936 7.665232 9.681553 -40.826305 2.269341 -0.394985 15.539477 -0.929701 -4.420745 1.779208 -1.543900 0.000000 -20.667600
-11.902161 17.087069 -1.212664 137.197279 89.805429 161.269625 -11.803696 1.685714 -2.726185 -5.043946 3.860453 -10.878837 -0.794755 1.583630 30.591769 0.317248 -1.087091 7.907440 -0.306600 0.000000 -75.039700 7.511915 -0.154433 1.622662 7.975793 9.640096 -40.587529 2.322061 -0.479118 16.182395 -1.042194 -4.657549 0.620221 -1.474400 -0.000000 -20.441700
-11.755571 17.102514 -1.184776 101.290164 89.425704 125.425618 -12.341876 1.666296 -2.693940 -4.842638 4.114873 -11.534520 -0.680902 1.698138 31.867482 0.392659 -1.014394 9.126020 -0.359200 -0.000001 -73.591400 7.047815 -0.287097 1.507381 8.213751 9.608303 -40.196141 2.349558 -0.443924 16.763877 -1.083400 -4.720601 -0.357325 -1.395700 0.000001 -20.329600
-11.611459 17.117999 -1.153195 72.918568 89.378142 97.130095 -12.570243 1.778429 -2.676001 -4.631181 4.408888 -12.278057 -0.647102 1.867979 33.215276 0.482622 -0.857878 10.297323 -0.391800 -0.000000 -71.441300 6.917045 -0.220576 1.375723 8.552415 9.568967 -39.729814 2.370825 -0.389849 17.192027 -1.108118 -4.730343 -1.175076 -1.314200 0.000000 -20.249700
-11.469658 17.133340 -1.118724 50.837964 89.429992 75.123852 -12.596506 1.892727 -2.674132 -4.410817 4.675466 -13.078995 -0.616503 2.029058 34.658547 0.576912 -0.614121 11.400798 -0.390999 0.000000 -68.614600 6.977541 -0.111293 1.262589 8.919517 9.446869 -39.235316 2.393910 -0.346844 17.468201 -1.128197 -4.714653 -1.858431 -1.235000 0.000000 -20.139000
-11.330012 17.148573 -1.082316 33.654148 89.583257 58.009412 -12.508094 1.971522 -2.682224 -4.202255 4.897628 -13.926464 -0.568508 2.164457 36.182419 0.673518 -0.261742 12.404752 -0.343200 -0.000000 -65.189200 7.137910 -0.015234 1.170616 9.277405 9.227287 -38.736072 2.420723 -0.319852 17.621496 -1.144194 -4.678650 -2.422545 -1.161000 0.000000 -19.963800
-11.192380 17.163877 -1.045171 20.992441 89.845721 45.410914 -12.386512 1.996989 -2.694467 -4.023330 5.075182 -14.814200 -0.494915 2.268105 37.762804 0.772689 0.219185 13.279378 -0.237000 -0.000000 -61.304700 7.318130 0.036961 1.096288 9.601861 8.918646 -38.245239 2.452374 -0.307078 17.681746 -1.155995 -4.627091 -2.884927 -1.094301 0.000000 -19.718900
-11.056682 17.179559 -1.008225 -167.965071 89.825207 -143.490333 -12.285297 1.979215 -2.707062 -3.895753 5.221865 -15.730629 -0.404466 2.348243 39.359547 0.876894 0.850113 14.002321 -0.062900 -0.000000 -57.156200 7.470507 0.049058 1.028169 9.878453 8.542812 -37.763168 2.486815 -0.301232 17.685168 -1.160711 -4.553918 -3.263731 -1.034100 0.000000 -19.437700
-10.922791 17.195829 -0.972740 -173.702292 89.480028 -149.168356 -12.230498 1.934696 -2.717185 -3.806282 5.364649 -16.688111 -0.310815 2.418634 40.949302 0.987918 1.630978 14.555310 0.179100 -0.000000 -52.979300 7.572034 0.034769 0.963252 10.123105 8.148255 -37.290155 2.522742 -0.292070 17.647087 -1.159675 -4.472878 -3.572200 -0.982700 -0.000000 -19.131600
-10.790881 17.213156 -0.939140 -177.443278 89.160827 -152.854281 -12.203926 1.879017 -2.730500 -3.758735 5.516670 -17.655338 -0.223547 2.486819 42.491137 1.106682 2.568567 14.935592 0.490700 0.000000 -49.008700 7.641729 0.012889 0.895125 10.339391 7.753515 -36.814190 2.557453 -0.279207 17.590024 -1.151839 -4.376357 -3.828168 -0.936300 0.000000 -18.881800
-10.660953 17.231771 -0.907906 -179.682148 88.886953 -155.040948 -12.198064 1.816174 -2.750623 -3.737809 5.692468 -18.625024 -0.146219 2.556245 43.966297 1.232808 3.647372 15.141901 0.863301 -0.000000 -45.444000 7.685116 -0.011766 0.825979 10.541252 7.386492 -36.329227 2.590759 -0.261213 17.514534 -1.139751 -4.274412 -4.043190 -0.895000 -0.000000 -18.724700
